<?xml version="1.0"?>
<svg xmlns:rdf="http://www.w3.org/1999/02/22-rdf-syntax-ns#" xmlns="http://www.w3.org/2000/svg" xmlns:cc="http://web.resource.org/cc/" xmlns:xlink="http://www.w3.org/1999/xlink" xmlns:dc="http://purl.org/dc/elements/1.1/" xmlns:svg="http://www.w3.org/2000/svg" id="svg2" viewBox="0 0 177.54 184.65" version="1.0">
  <defs id="defs5">
    <radialGradient id="radialGradient2136" gradientUnits="userSpaceOnUse" cy="191.79" cx="191.85" gradientTransform="matrix(-.10659 1.7517 -1.2059 -.073376 459.56 -121.71)" r="109.16">
      <stop id="stop2211" stop-color="#f00" offset="0"/>
      <stop id="stop2213" stop-color="#ff2a2a" stop-opacity="0" offset="1"/>
    </radialGradient>
    <linearGradient id="linearGradient2138" x1="355.05" gradientUnits="userSpaceOnUse" y1="230.75" gradientTransform="matrix(.55286 0 0 .55286 -8.6794 -52.478)" x2="324.76" y2="593.93">
      <stop id="stop3197" stop-color="#fff" stop-opacity=".37441" offset="0"/>
      <stop id="stop3199" stop-color="#fff" stop-opacity="0" offset="1"/>
    </linearGradient>
  </defs>
  <g id="g2194" transform="matrix(.49820 0 0 .49820 -4.7123 1.1993)" fill-rule="evenodd">
    <path id="path12034" stroke="#000" stroke-width="1.1057" d="m211.87 59.029c-10.03-14.416-34.11-19.061-41.92-8.424-40.98 55.815-109.45 215.38-105.58 215.8-2.886 8.34-9.383 26.05-3.608 36.54 18.581 21.21 33.441 28.98 61.148 21.36l192.02-49.47c18.16-6.76 19.16-27.59 11.32-40.23-29.82-48.13-77.14-123.49-113.38-175.57z"/>
    <path id="path12040" fill="url(#radialGradient2136)" d="m193.88 80.319c-37.31 67.261-64.05 134.53-92.47 201.8-2.606 5.2-3.27 13.81-0.79 17.27 2.48 3.45 11.54 4.18 19.74 2.45l181.81-43.47c6.22-1.5 12.57-3.58 14.07-7.18 1.51-3.6-2.22-9.6-5.05-14.4-30.84-50.13-62.52-101.1-98.88-156.75-3.06-4.847-6.74-7.811-9.98-7.658s-6.32 3.717-8.45 7.937z"/>
    <g id="g3209" transform="translate(-2,-2)" fill="maroon">
      <path id="path3205" d="m220.84 118.51c-8.09 2.99-18.85 4.21-32.53 3.48 9.04 31.26 14.02 65.31 15.69 96.57 6.98 0.94 13.01 0 18.12-2.78 2.31-31.26 3.84-64.17-1.28-97.27z"/>
      <path id="path3207" d="m216.89 229.93c-7.01-1.13-13.77 4.33-15.06 12.15-1.3 7.83 3.35 15.09 10.37 16.21 7.01 1.13 13.74-4.3 15.03-12.13 1.3-7.82-3.32-15.1-10.34-16.23z"/>
    </g>
    <path id="path3203" fill="#fff" d="m222.84 120.51c-8.09 2.99-18.85 4.21-32.53 3.48 9.04 31.26 14.02 65.31 15.69 96.57 6.98 0.94 13.01 0 18.12-2.78 2.31-31.26 3.84-64.17-1.28-97.27z"/>
    <path id="path12050" fill="#fff" d="m218.89 231.93c-7.01-1.13-13.77 4.33-15.06 12.15-1.3 7.83 3.35 15.09 10.37 16.21 7.01 1.13 13.74-4.3 15.03-12.13 1.3-7.82-3.32-15.1-10.34-16.23z"/>
    <path id="path12054" fill="url(#linearGradient2138)" d="m197.14 92.615c-31.9 61.895-57.68 123.78-84.22 185.68-2.15 4.3-5.5 11.17-3.45 14.02 2.05 2.86 3.93 2.19 10.7 0.75l57.3-14.42c-7.22-53.26-3.88-130.96 55.44-152.59l-20.53-33.677c-2.52-4.007-5.57-6.459-8.25-6.332s-5.22 3.074-6.99 6.564z"/>
  </g>
  <metadata>
    <rdf:RDF>
      <cc:Work>
        <dc:format>image/svg+xml</dc:format>
        <dc:type rdf:resource="http://purl.org/dc/dcmitype/StillImage"/>
        <cc:license rdf:resource="http://creativecommons.org/licenses/publicdomain/"/>
        <dc:publisher>
          <cc:Agent rdf:about="http://openclipart.org/">
            <dc:title>Openclipart</dc:title>
          </cc:Agent>
        </dc:publisher>
        <dc:title>Exclamation icons</dc:title>
        <dc:date>2006-11-29T15:22:33</dc:date>
        <dc:description>a series of exclamation icons</dc:description>
        <dc:source>http://openclipart.org/detail/2482/exclamation-icons-by-molumen-2482</dc:source>
        <dc:creator>
          <cc:Agent>
            <dc:title>molumen</dc:title>
          </cc:Agent>
        </dc:creator>
        <dc:subject>
          <rdf:Bag>
            <rdf:li>attention</rdf:li>
            <rdf:li>black</rdf:li>
            <rdf:li>clip art</rdf:li>
            <rdf:li>clipart</rdf:li>
            <rdf:li>exclamation</rdf:li>
            <rdf:li>icon</rdf:li>
            <rdf:li>red</rdf:li>
            <rdf:li>remix</rdf:li>
            <rdf:li>remix problem</rdf:li>
            <rdf:li>series</rdf:li>
            <rdf:li>sign</rdf:li>
            <rdf:li>triangle</rdf:li>
          </rdf:Bag>
        </dc:subject>
      </cc:Work>
      <cc:License rdf:about="http://creativecommons.org/licenses/publicdomain/">
        <cc:permits rdf:resource="http://creativecommons.org/ns#Reproduction"/>
        <cc:permits rdf:resource="http://creativecommons.org/ns#Distribution"/>
        <cc:permits rdf:resource="http://creativecommons.org/ns#DerivativeWorks"/>
      </cc:License>
    </rdf:RDF>
  </metadata>
</svg>
