<?xml version="1.0"?>
<svg xmlns:rdf="http://www.w3.org/1999/02/22-rdf-syntax-ns#" xmlns="http://www.w3.org/2000/svg" xmlns:cc="http://web.resource.org/cc/" xmlns:xlink="http://www.w3.org/1999/xlink" xmlns:dc="http://purl.org/dc/elements/1.1/" xmlns:svg="http://www.w3.org/2000/svg" id="svg2" viewBox="0 0 177.54 184.65" version="1.0">
  <defs id="defs5">
    <radialGradient id="radialGradient2257" gradientUnits="userSpaceOnUse" cy="191.79" cx="191.85" gradientTransform="matrix(-.053101 .87269 -.60077 -.036556 599.44 -35.24)" r="109.16">
      <stop id="stop8442" stop-color="#faed21" offset="0"/>
      <stop id="stop8444" stop-color="#faed21" stop-opacity="0" offset="1"/>
    </radialGradient>
    <linearGradient id="linearGradient2259" x1="355.05" gradientUnits="userSpaceOnUse" y1="230.75" gradientTransform="matrix(.27544 0 0 .27544 366.17 -.75118)" x2="324.76" y2="593.93">
      <stop id="stop3197" stop-color="#fff" stop-opacity=".37441" offset="0"/>
      <stop id="stop3199" stop-color="#fff" stop-opacity="0" offset="1"/>
    </linearGradient>
  </defs>
  <g id="g1984" transform="translate(-375.36 -24.194)" fill-rule="evenodd">
    <path id="path2256" stroke="#000" stroke-width=".55087" d="m476.05 54.802c-5-7.182-17-9.496-20.89-4.197-20.42 27.807-54.53 107.3-52.6 107.52-1.44 4.15-4.67 12.97-1.8 18.2 9.26 10.56 16.66 14.43 30.47 10.64l95.66-24.65c9.05-3.36 9.55-13.74 5.64-20.04-14.86-23.98-38.43-61.524-56.48-87.468z"/>
    <path id="path2258" fill="url(#radialGradient2257)" d="m467.08 65.408c-18.59 33.512-31.91 67.022-46.07 100.53-1.3 2.6-1.63 6.89-0.39 8.61 1.23 1.72 5.75 2.08 9.83 1.22l90.58-21.66c3.1-0.74 6.26-1.78 7.01-3.57 0.75-1.8-1.1-4.79-2.51-7.18-15.37-24.97-31.15-50.366-49.27-78.091-1.52-2.414-3.35-3.891-4.97-3.815-1.61 0.076-3.14 1.852-4.21 3.954z"/>
    <g id="g2260" fill="#7b751a" transform="matrix(.49820 0 0 .49820 369.49 24.397)">
      <path id="path2262" d="m220.84 118.51c-8.09 2.99-18.85 4.21-32.53 3.48 9.04 31.26 14.02 65.31 15.69 96.57 6.98 0.94 13.01 0 18.12-2.78 2.31-31.26 3.84-64.17-1.28-97.27z"/>
      <path id="path2264" d="m216.89 229.93c-7.01-1.13-13.77 4.33-15.06 12.15-1.3 7.83 3.35 15.09 10.37 16.21 7.01 1.13 13.74-4.3 15.03-12.13 1.3-7.82-3.32-15.1-10.34-16.23z"/>
    </g>
    <path id="path2266" fill="#fff" d="m481.51 85.432c-4.03 1.49-9.39 2.097-16.21 1.733 4.51 15.575 6.99 32.535 7.82 48.115 3.48 0.47 6.48 0 9.03-1.39 1.15-15.57 1.91-31.97-0.64-48.458z"/>
    <path id="path2268" fill="#fff" d="m479.54 140.94c-3.49-0.56-6.86 2.16-7.5 6.06-0.65 3.89 1.67 7.51 5.16 8.07 3.5 0.56 6.85-2.14 7.49-6.04 0.65-3.9-1.65-7.53-5.15-8.09z"/>
    <path id="path2270" fill="url(#linearGradient2259)" d="m468.7 71.534c-15.89 30.836-28.73 61.676-41.95 92.506-1.07 2.15-2.74 5.57-1.72 6.99s1.95 1.09 5.33 0.37l28.54-7.18c-3.59-26.54-1.93-65.247 27.62-76.024l-10.22-16.777c-1.26-1.997-2.78-3.218-4.11-3.155-1.34 0.063-2.6 1.532-3.49 3.27z"/>
  </g>
  <metadata>
    <rdf:RDF>
      <cc:Work>
        <dc:format>image/svg+xml</dc:format>
        <dc:type rdf:resource="http://purl.org/dc/dcmitype/StillImage"/>
        <cc:license rdf:resource="http://creativecommons.org/licenses/publicdomain/"/>
        <dc:publisher>
          <cc:Agent rdf:about="http://openclipart.org/">
            <dc:title>Openclipart</dc:title>
          </cc:Agent>
        </dc:publisher>
        <dc:title>Exclamation icons</dc:title>
        <dc:date>2006-11-29T15:22:33</dc:date>
        <dc:description>a series of exclamation icons</dc:description>
        <dc:source>http://openclipart.org/detail/2484/exclamation-icons-by-molumen-2484</dc:source>
        <dc:creator>
          <cc:Agent>
            <dc:title>molumen</dc:title>
          </cc:Agent>
        </dc:creator>
        <dc:subject>
          <rdf:Bag>
            <rdf:li>aqua</rdf:li>
            <rdf:li>attention</rdf:li>
            <rdf:li>black</rdf:li>
            <rdf:li>clip art</rdf:li>
            <rdf:li>clipart</rdf:li>
            <rdf:li>exclamation</rdf:li>
            <rdf:li>glossy</rdf:li>
            <rdf:li>icon</rdf:li>
            <rdf:li>series</rdf:li>
            <rdf:li>sign</rdf:li>
            <rdf:li>triangle</rdf:li>
            <rdf:li>yellow</rdf:li>
          </rdf:Bag>
        </dc:subject>
      </cc:Work>
      <cc:License rdf:about="http://creativecommons.org/licenses/publicdomain/">
        <cc:permits rdf:resource="http://creativecommons.org/ns#Reproduction"/>
        <cc:permits rdf:resource="http://creativecommons.org/ns#Distribution"/>
        <cc:permits rdf:resource="http://creativecommons.org/ns#DerivativeWorks"/>
      </cc:License>
    </rdf:RDF>
  </metadata>
</svg>
